<svg id="Layer_1" data-name="Layer 1" xmlns="http://www.w3.org/2000/svg" viewBox="0 0 60 79.74"><defs><style>.cls-1,.cls-5{fill:#090;}.cls-1,.cls-2,.cls-3,.cls-4{fill-rule:evenodd;}.cls-2{fill:#9c0;}.cls-3{fill:#fff;}.cls-4{fill:#ffe600;}</style></defs><title>BP Assets</title><path class="cls-1" d="M34.08,26.17A43.67,43.67,0,0,0,30,18.81a43.31,43.31,0,0,0-4.08,7.35A28,28,0,0,1,30,31.72,27.78,27.78,0,0,1,34.08,26.17Z"/><path class="cls-1" d="M25.92,72.39A43.37,43.37,0,0,0,30,79.74a43.65,43.65,0,0,0,4.08-7.35A28,28,0,0,1,30,66.83,28.11,28.11,0,0,1,25.92,72.39Z"/><path class="cls-1" d="M25.92,26.17a43.08,43.08,0,0,0-6.34-5.52A43.15,43.15,0,0,0,18.27,29,28.19,28.19,0,0,1,24,32.78,28.1,28.1,0,0,1,25.92,26.17Z"/><path class="cls-1" d="M34.08,72.39a43.1,43.1,0,0,0,6.34,5.51,43.32,43.32,0,0,0,1.31-8.3A28.3,28.3,0,0,1,36,65.77,28.2,28.2,0,0,1,34.08,72.39Z"/><path class="cls-1" d="M18.27,29a43.63,43.63,0,0,0-7.85-3A42.87,42.87,0,0,0,12,34.19a27.9,27.9,0,0,1,6.69,1.64A27.78,27.78,0,0,1,18.27,29Z"/><path class="cls-1" d="M41.73,69.6a43.28,43.28,0,0,0,7.85,3A43.06,43.06,0,0,0,48,64.36a27.93,27.93,0,0,1-6.69-1.64A27.88,27.88,0,0,1,41.73,69.6Z"/><path class="cls-1" d="M14.8,40.5A28.21,28.21,0,0,1,12,34.19,43,43,0,0,0,3.62,34a43.56,43.56,0,0,0,4.33,7.21A28,28,0,0,1,14.8,40.5Z"/><path class="cls-1" d="M45.2,58.05A27.65,27.65,0,0,1,48,64.36a43.68,43.68,0,0,0,8.41.15,43,43,0,0,0-4.33-7.21A28,28,0,0,1,45.2,58.05Z"/><path class="cls-1" d="M7.95,41.25A43.08,43.08,0,0,0,0,44a43.65,43.65,0,0,0,6.53,5.29,28,28,0,0,1,6.18-3A28.24,28.24,0,0,1,7.95,41.25Z"/><path class="cls-1" d="M53.46,49.28a27.83,27.83,0,0,1-6.18,3,28,28,0,0,1,4.77,5A42.84,42.84,0,0,0,60,54.57,43,43,0,0,0,53.46,49.28Z"/><path class="cls-1" d="M12.72,52.33a27.79,27.79,0,0,1-6.18-3A43.34,43.34,0,0,0,0,54.57,43.11,43.11,0,0,0,7.95,57.3,28.16,28.16,0,0,1,12.72,52.33Z"/><path class="cls-1" d="M47.29,46.23a28,28,0,0,1,6.18,3A43.31,43.31,0,0,0,60,44a42.82,42.82,0,0,0-7.95-2.74A28.11,28.11,0,0,1,47.29,46.23Z"/><path class="cls-1" d="M7.95,57.3a43.28,43.28,0,0,0-4.33,7.21A43.67,43.67,0,0,0,12,64.36a28.19,28.19,0,0,1,2.77-6.31A28,28,0,0,1,7.95,57.3Z"/><path class="cls-1" d="M52.05,41.25A43.1,43.1,0,0,0,56.38,34a43.56,43.56,0,0,0-8.41.15A27.67,27.67,0,0,1,45.2,40.5,28,28,0,0,1,52.05,41.25Z"/><path class="cls-1" d="M18.72,62.72A28,28,0,0,1,12,64.36a42.87,42.87,0,0,0-1.6,8.25,43.41,43.41,0,0,0,7.85-3A27.86,27.86,0,0,1,18.72,62.72Z"/><path class="cls-1" d="M41.28,35.83A27.85,27.85,0,0,1,48,34.19a43.05,43.05,0,0,0,1.61-8.26,43.16,43.16,0,0,0-7.85,3A27.84,27.84,0,0,1,41.28,35.83Z"/><path class="cls-1" d="M18.27,69.6a43.23,43.23,0,0,0,1.31,8.3,43.29,43.29,0,0,0,6.34-5.51A28.16,28.16,0,0,1,24,65.77,28.25,28.25,0,0,1,18.27,69.6Z"/><path class="cls-1" d="M41.73,29a43.24,43.24,0,0,0-1.31-8.3,42.9,42.9,0,0,0-6.34,5.52A28.08,28.08,0,0,1,36,32.78,28.3,28.3,0,0,1,41.73,29Z"/><path class="cls-2" d="M27.91,37.44A19.27,19.27,0,0,1,30,31.72a28,28,0,0,0-4.08-5.56A28.1,28.1,0,0,0,24,32.78,19.27,19.27,0,0,1,27.91,37.44Z"/><path class="cls-2" d="M32.09,61.12A19.34,19.34,0,0,1,30,66.83a28,28,0,0,0,4.08,5.56A28.2,28.2,0,0,0,36,65.77,19.33,19.33,0,0,1,32.09,61.12Z"/><path class="cls-2" d="M18.72,35.83a19.31,19.31,0,0,1,5.27,3,19.33,19.33,0,0,1,0-6.08A28.19,28.19,0,0,0,18.27,29,27.78,27.78,0,0,0,18.72,35.83Z"/><path class="cls-2" d="M41.28,62.72a19.33,19.33,0,0,1-5.27-3,19.3,19.3,0,0,1,0,6.08,28.3,28.3,0,0,0,5.73,3.83A27.88,27.88,0,0,0,41.28,62.72Z"/><path class="cls-2" d="M20.79,41.55a19.23,19.23,0,0,1-2.07-5.72A27.9,27.9,0,0,0,12,34.19,28.21,28.21,0,0,0,14.8,40.5,19.34,19.34,0,0,1,20.79,41.55Z"/><path class="cls-2" d="M39.21,57a19.28,19.28,0,0,1,2.07,5.71A27.93,27.93,0,0,0,48,64.36a27.65,27.65,0,0,0-2.78-6.31A19.3,19.3,0,0,1,39.21,57Z"/><path class="cls-2" d="M12.72,46.23a19.24,19.24,0,0,1,6-1.07,19.21,19.21,0,0,1-3.9-4.66,28,28,0,0,0-6.85.75A28.24,28.24,0,0,0,12.72,46.23Z"/><path class="cls-2" d="M47.29,52.33a19.37,19.37,0,0,1-6,1.06,19.15,19.15,0,0,1,3.9,4.66,28,28,0,0,0,6.85-.75A28,28,0,0,0,47.29,52.33Z"/><path class="cls-2" d="M18,49.28a19.34,19.34,0,0,1-5.26-3,28,28,0,0,0-6.18,3,27.79,27.79,0,0,0,6.18,3A19.25,19.25,0,0,1,18,49.28Z"/><path class="cls-2" d="M42,49.28a19.24,19.24,0,0,1,5.26,3,27.83,27.83,0,0,0,6.18-3,28,28,0,0,0-6.18-3A19.32,19.32,0,0,1,42,49.28Z"/><path class="cls-2" d="M14.8,58.05a19.18,19.18,0,0,1,3.9-4.66,19.27,19.27,0,0,1-6-1.06,28.16,28.16,0,0,0-4.77,5A28,28,0,0,0,14.8,58.05Z"/><path class="cls-2" d="M45.2,40.5a19.18,19.18,0,0,1-3.9,4.66,19.26,19.26,0,0,1,6,1.07,28.11,28.11,0,0,0,4.77-5A28,28,0,0,0,45.2,40.5Z"/><path class="cls-2" d="M20.79,57a19.33,19.33,0,0,1-6,1A28.19,28.19,0,0,0,12,64.36a28,28,0,0,0,6.69-1.64A19.21,19.21,0,0,1,20.79,57Z"/><path class="cls-2" d="M39.21,41.55a19.31,19.31,0,0,1,6-1A27.67,27.67,0,0,0,48,34.19a27.85,27.85,0,0,0-6.69,1.64A19.3,19.3,0,0,1,39.21,41.55Z"/><path class="cls-2" d="M27.91,61.12A19.26,19.26,0,0,1,24,65.77a28.16,28.16,0,0,0,1.93,6.62A28.11,28.11,0,0,0,30,66.83,19.29,19.29,0,0,1,27.91,61.12Z"/><path class="cls-2" d="M24,59.69a19.34,19.34,0,0,1-5.27,3,27.86,27.86,0,0,0-.45,6.88A28.25,28.25,0,0,0,24,65.77,19.32,19.32,0,0,1,24,59.69Z"/><path class="cls-2" d="M32.09,37.44A19.27,19.27,0,0,1,36,32.78a28.08,28.08,0,0,0-1.92-6.61A27.78,27.78,0,0,0,30,31.72,19.32,19.32,0,0,1,32.09,37.44Z"/><path class="cls-2" d="M36,38.86a19.3,19.3,0,0,1,5.27-3A27.84,27.84,0,0,0,41.73,29,28.3,28.3,0,0,0,36,32.78,19.32,19.32,0,0,1,36,38.86Z"/><path class="cls-3" d="M27.92,43.57A16.4,16.4,0,0,0,24,38.86a16.48,16.48,0,0,0,2.11,5.76,16.45,16.45,0,0,0-5.3-3.07,16.32,16.32,0,0,0,3.95,4.69,16.39,16.39,0,0,0-6-1.07A16.42,16.42,0,0,0,24,48.22a16.44,16.44,0,0,0-6,1.06,16.46,16.46,0,0,0,6,1.05,16.44,16.44,0,0,0-5.31,3.06,16.38,16.38,0,0,0,6-1.07A16.31,16.31,0,0,0,20.79,57a16.52,16.52,0,0,0,5.3-3.07A16.47,16.47,0,0,0,24,59.69,16.46,16.46,0,0,0,27.92,55a16.51,16.51,0,0,0,0,6.13A16.47,16.47,0,0,0,30,55.36a16.51,16.51,0,0,0,2.09,5.76,16.43,16.43,0,0,0,0-6.13A16.53,16.53,0,0,0,36,59.69a16.44,16.44,0,0,0-2.11-5.76A16.56,16.56,0,0,0,39.21,57a16.36,16.36,0,0,0-3.95-4.69,16.37,16.37,0,0,0,6,1.07A16.56,16.56,0,0,0,36,50.33a16.36,16.36,0,0,0,6-1.05,16.41,16.41,0,0,0-6-1.06,16.48,16.48,0,0,0,5.31-3.06,16.42,16.42,0,0,0-6,1.07,16.33,16.33,0,0,0,4-4.69,16.53,16.53,0,0,0-5.3,3.07A16.46,16.46,0,0,0,36,38.86a16.47,16.47,0,0,0-3.93,4.7,16.44,16.44,0,0,0,0-6.13A16.47,16.47,0,0,0,30,43.2a16.44,16.44,0,0,0-2.09-5.76A16.53,16.53,0,0,0,27.92,43.57Z"/><path class="cls-4" d="M27.92,43.57a16.53,16.53,0,0,1,0-6.13A19.27,19.27,0,0,0,24,32.78a19.33,19.33,0,0,0,0,6.08A16.4,16.4,0,0,1,27.92,43.57Z"/><path class="cls-4" d="M32.08,55a16.43,16.43,0,0,1,0,6.13A19.33,19.33,0,0,0,36,65.77a19.3,19.3,0,0,0,0-6.08A16.53,16.53,0,0,1,32.08,55Z"/><path class="cls-4" d="M24,38.86a19.31,19.31,0,0,0-5.27-3,19.23,19.23,0,0,0,2.07,5.72,16.45,16.45,0,0,1,5.3,3.07A16.48,16.48,0,0,1,24,38.86Z"/><path class="cls-4" d="M36,59.69a19.33,19.33,0,0,0,5.27,3A19.28,19.28,0,0,0,39.21,57a16.56,16.56,0,0,1-5.3-3.07A16.44,16.44,0,0,1,36,59.69Z"/><path class="cls-4" d="M24.74,46.24a16.32,16.32,0,0,1-3.95-4.69,19.34,19.34,0,0,0-6-1,19.21,19.21,0,0,0,3.9,4.66A16.39,16.39,0,0,1,24.74,46.24Z"/><path class="cls-4" d="M35.26,52.32A16.36,16.36,0,0,1,39.21,57a19.3,19.3,0,0,0,6,1,19.15,19.15,0,0,0-3.9-4.66A16.37,16.37,0,0,1,35.26,52.32Z"/><path class="cls-4" d="M24,48.22a16.42,16.42,0,0,1-5.31-3.06,19.24,19.24,0,0,0-6,1.07,19.34,19.34,0,0,0,5.26,3A16.44,16.44,0,0,1,24,48.22Z"/><path class="cls-4" d="M36,50.33a16.56,16.56,0,0,1,5.31,3.06,19.37,19.37,0,0,0,6-1.06,19.24,19.24,0,0,0-5.26-3A16.36,16.36,0,0,1,36,50.33Z"/><path class="cls-4" d="M18,49.28a19.25,19.25,0,0,0-5.26,3,19.27,19.27,0,0,0,6,1.06A16.44,16.44,0,0,1,24,50.33,16.46,16.46,0,0,1,18,49.28Z"/><path class="cls-4" d="M42,49.28a19.32,19.32,0,0,0,5.26-3,19.26,19.26,0,0,0-6-1.07A16.48,16.48,0,0,1,36,48.22,16.41,16.41,0,0,1,42,49.28Z"/><path class="cls-4" d="M24.74,52.32a16.38,16.38,0,0,1-6,1.07,19.18,19.18,0,0,0-3.9,4.66,19.33,19.33,0,0,0,6-1A16.31,16.31,0,0,1,24.74,52.32Z"/><path class="cls-4" d="M35.26,46.24a16.42,16.42,0,0,1,6-1.07,19.18,19.18,0,0,0,3.9-4.66,19.31,19.31,0,0,0-6,1A16.33,16.33,0,0,1,35.26,46.24Z"/><path class="cls-4" d="M27.91,61.12A19.29,19.29,0,0,0,30,66.83a19.34,19.34,0,0,0,2.09-5.71A16.51,16.51,0,0,1,30,55.36,16.47,16.47,0,0,1,27.91,61.12Z"/><path class="cls-4" d="M27.92,55A16.46,16.46,0,0,1,24,59.69a19.32,19.32,0,0,0,0,6.08,19.26,19.26,0,0,0,3.91-4.65A16.51,16.51,0,0,1,27.92,55Z"/><path class="cls-4" d="M20.79,57a19.21,19.21,0,0,0-2.07,5.71,19.34,19.34,0,0,0,5.27-3,16.47,16.47,0,0,1,2.11-5.76A16.52,16.52,0,0,1,20.79,57Z"/><path class="cls-4" d="M32.09,37.44A19.32,19.32,0,0,0,30,31.72a19.27,19.27,0,0,0-2.09,5.71A16.44,16.44,0,0,1,30,43.2,16.47,16.47,0,0,1,32.09,37.44Z"/><path class="cls-4" d="M32.08,43.57A16.47,16.47,0,0,1,36,38.86a19.32,19.32,0,0,0,0-6.08,19.27,19.27,0,0,0-3.91,4.65A16.44,16.44,0,0,1,32.08,43.57Z"/><path class="cls-4" d="M39.21,41.55a19.3,19.3,0,0,0,2.07-5.72,19.3,19.3,0,0,0-5.27,3,16.46,16.46,0,0,1-2.11,5.76A16.53,16.53,0,0,1,39.21,41.55Z"/><path class="cls-5" d="M46.27,9.29c0,1.74-.62,4.14-3.08,4.14-3,0-3-3.33-3-4s0-4.24,3.05-4.24C46.06,5.15,46.27,8.23,46.27,9.29ZM40.27,0h-2V12.82l0,1.91h1.93l0-1.61a3.43,3.43,0,0,0,1,1.08,4.21,4.21,0,0,0,2.37.68A4.51,4.51,0,0,0,47.36,13a6.15,6.15,0,0,0,1-3.88,5.6,5.6,0,0,0-1.25-4A4.36,4.36,0,0,0,43.75,3.8a3.56,3.56,0,0,0-3.48,1.83V0Z"/><path class="cls-5" d="M51.81,9.72c0-1,0-4.33,3.18-4.33,2.36,0,2.93,2,2.93,3.91a6,6,0,0,1-.87,3.33,2.72,2.72,0,0,1-2.25,1C52,13.66,51.81,11,51.81,9.72Zm-1.91,9.1h2V13.54a3.68,3.68,0,0,0,3.27,1.59c2.55,0,4.86-1.74,4.86-5.71S57.82,3.9,55.53,3.9A4.14,4.14,0,0,0,51.9,5.83l0-1.76h-2c0,1,.06,1.27.06,1.74v13Z"/></svg>