<svg id="Layer_1" data-name="Layer 1" xmlns="http://www.w3.org/2000/svg" viewBox="0 0 16 16"><defs><style>.cls-1{fill:#999;}</style></defs><title>BP Assets</title><path class="cls-1" d="M7.16,0H8.84a0.46,0.46,0,0,1,.28.48c0,0.49,0,1,0,1.47a0.15,0.15,0,0,0,.14.18,5.85,5.85,0,0,1,2,.84L11.38,3l1.19-1.19a0.38,0.38,0,0,1,.59,0l1,1a0.38,0.38,0,0,1,0,.61l-1,1a1.15,1.15,0,0,1-.17.12,6,6,0,0,1,.93,2.16,0.13,0.13,0,0,0,.17.13h1.48a0.46,0.46,0,0,1,.49.28V8.84a0.46,0.46,0,0,1-.49.28H14a0.15,0.15,0,0,0-.19.14,5.87,5.87,0,0,1-.85,2l0,0.09,1.18,1.17a0.38,0.38,0,0,1,0,.61l-1,1a0.38,0.38,0,0,1-.61,0l-1.06-1.06L11.37,13a6,6,0,0,1-2.15.91c-0.1,0-.09.08-0.09,0.15q0,0.77,0,1.55a0.38,0.38,0,0,1-.43.43H7.3a0.38,0.38,0,0,1-.43-0.44c0-.51,0-1,0-1.53a0.14,0.14,0,0,0-.14-0.17A5.83,5.83,0,0,1,5,13.21L4.6,13a1.06,1.06,0,0,1-.09.13L3.45,14.14a0.38,0.38,0,0,1-.61,0l-1-1a0.38,0.38,0,0,1,0-.59l0.72-.72L3,11.39a6.19,6.19,0,0,1-.93-2.18A0.19,0.19,0,0,0,2,9.13c-0.49,0-1,0-1.48,0A0.46,0.46,0,0,1,0,8.84V7.16A0.46,0.46,0,0,1,.49,6.87H2a0.15,0.15,0,0,0,.18-0.14,5.81,5.81,0,0,1,.83-2L3,4.62,1.85,3.43a0.38,0.38,0,0,1,0-.58l1-1a0.37,0.37,0,0,1,.57,0L4.37,2.78C4.46,2.87,4.53,3,4.61,3a5.91,5.91,0,0,1,2.13-.91A0.15,0.15,0,0,0,6.88,2c0-.49,0-1,0-1.47A0.46,0.46,0,0,1,7.16,0ZM8,4.25A3.75,3.75,0,1,0,11.75,8,3.75,3.75,0,0,0,8,4.25Z"/></svg>