<svg id="Layer_1" data-name="Layer 1" xmlns="http://www.w3.org/2000/svg" viewBox="0 0 15 20.22"><defs><style>.cls-1{fill:#e34947;}.cls-2{fill:#fff;}.cls-3{opacity:0.2;}</style></defs><title>BP Assets</title><path class="cls-1" d="M11.58,0.22H0v20H15V3.37Z"/><path id="path4463" class="cls-2" d="M5.46,10.4c0.39-.76.83-1.62,1.19-2.49h0l0.14-.34A9.21,9.21,0,0,1,6.3,3.48h0A0.63,0.63,0,0,1,6.94,3.1H7.15a0.77,0.77,0,0,1,.62.71h0a3.22,3.22,0,0,1-.12.9h0a2.21,2.21,0,0,0-.13-0.91h0A1.07,1.07,0,0,0,7,3.17H7a0.45,0.45,0,0,0-.17.34h0a4.91,4.91,0,0,0-.06.79h0a8.79,8.79,0,0,0,.36,2.28h0c0-.13.09-0.26,0.12-0.37h0L7.65,4.79h0S7.57,6.43,7.46,6.92h0l-0.08.31h0A7.18,7.18,0,0,0,9.18,10h0a5.62,5.62,0,0,0,1,.71h0a14.16,14.16,0,0,1,2.1-.16h0a2.64,2.64,0,0,1,1.62.36h0a0.62,0.62,0,0,1,.18.4h0a1.25,1.25,0,0,1,0,.24h0s0-.25-0.63-0.46h0a7.45,7.45,0,0,0-2.58,0h0a5.22,5.22,0,0,0,3,.77h0a0.85,0.85,0,0,0,.22-0.21h0a2.28,2.28,0,0,1-.12.4h0a0.64,0.64,0,0,1-.31.22h0a6.69,6.69,0,0,1-3.75-1.05h0a30.61,30.61,0,0,0-4.82,1.15h0C3.67,14.83,2.62,16,1.76,15.53h0l-0.32-.16A0.36,0.36,0,0,1,1.33,15h0a3.89,3.89,0,0,1,1.94-2h0L4,12.62H4s-0.44.42-.54,0.51h0a4.55,4.55,0,0,0-1.69,2.21h0v0c0.83-.12,2.09-1.82,3.7-5M6,10.67c-0.27.51-.53,1-0.77,1.41h0a20.56,20.56,0,0,1,4.16-1.18h0C9.18,10.77,9,10.63,8.83,10.49h0A7.14,7.14,0,0,1,7.08,8.21h0A19.53,19.53,0,0,1,6,10.67"/><path class="cls-2" d="M6.69,14.05H7.61a0.8,0.8,0,0,1,.63.24,1,1,0,0,1,.22.68,1,1,0,0,1-.22.69,0.8,0.8,0,0,1-.63.24H7.24v1H6.69V14.05m0.55,0.53v0.79H7.55a0.31,0.31,0,0,0,.25-0.1A0.45,0.45,0,0,0,7.89,15a0.44,0.44,0,0,0-.09-0.29,0.31,0.31,0,0,0-.25-0.1H7.24m2.15,0v1.73H9.6a0.62,0.62,0,0,0,.52-0.22,1.25,1.25,0,0,0,0-1.29A0.63,0.63,0,0,0,9.6,14.6H9.4m-0.55-.55H9.43a2.12,2.12,0,0,1,.73.09,0.94,0.94,0,0,1,.41.31,1.31,1.31,0,0,1,.22.44,2,2,0,0,1,.07.57,2.07,2.07,0,0,1-.07.57,1.3,1.3,0,0,1-.22.44,1,1,0,0,1-.41.31,2.17,2.17,0,0,1-.72.09H8.85V14.05m2.44,0h1.49V14.6H11.84v0.53h0.88v0.55H11.84v1.2H11.29V14.05"/><polygon class="cls-3" points="14.95 3.22 11 3.22 11 0 14.95 3.22"/></svg>