<svg id="Layer_1" data-name="Layer 1" xmlns="http://www.w3.org/2000/svg" viewBox="0 0 282 142"><defs><style>.cls-1{fill:#ffc000;stroke:#fff;stroke-miterlimit:10;stroke-width:2px;}.cls-2{font-size:18px;font-family:Univers LT Pro;}.cls-2,.cls-3{fill:#fff;}</style></defs><title>BP Assets</title><rect class="cls-1" x="1" y="1" width="280" height="24"/><text class="cls-2" transform="translate(8.41 19.6)">1</text><rect class="cls-1" x="1" y="30" width="280" height="24"/><rect class="cls-1" x="1" y="59" width="280" height="24"/><rect class="cls-1" x="1" y="88" width="280" height="24"/><rect class="cls-1" x="1" y="117" width="280" height="24"/><path class="cls-3" d="M101,9.73h-1c0-1-.8-1.57-2.2-1.57-1.08,0-2.35.56-2.35,1.77a1.59,1.59,0,0,0,.52,1.23,4.73,4.73,0,0,0,1.74.87l0.94,0.31c1.3,0.43,2.52,1.06,2.52,2.65a2.43,2.43,0,0,1-1.37,2.35,5.9,5.9,0,0,1-2.33.52,3.52,3.52,0,0,1-1.4-.22A2.88,2.88,0,0,1,94.21,15h1c0,1.28.83,2,2.54,2a2.22,2.22,0,0,0,2.44-1.95,1.55,1.55,0,0,0-.88-1.46A11.22,11.22,0,0,0,97.54,13a8.44,8.44,0,0,1-1.19-.45,2.66,2.66,0,0,1-1.9-2.46c0-1.74,1.6-2.73,3.24-2.73S100.78,8,101,9.73Z"/><path class="cls-3" d="M103.13,10.61H104v4.58a1.73,1.73,0,0,0,1.85,1.89,2.1,2.1,0,0,0,2-2.37v-4.1h0.84v5.55c0,0.11,0,.27,0,0.43l0.06,1.05h-0.87l0-1,0,0a2.42,2.42,0,0,1-2.2,1.27c-1.65,0-2.48-1.11-2.48-2.8V10.61Z"/><path class="cls-3" d="M110.83,7.53h0.84v4.12l0,0a2.79,2.79,0,0,1,2.42-1.28c1.79,0,2.87,1.51,2.87,3.7s-1,3.75-2.84,3.75a2.86,2.86,0,0,1-2.45-1.3l0,0.06,0,1h-0.87c0-.73.07-1.23,0.07-1.48V7.53ZM114,17.08c1.33,0,2-1.25,2-3.05s-0.8-2.86-2.16-2.86-2.26,1.08-2.26,2.82C111.67,16,112.51,17.08,114,17.08Z"/><path class="cls-3" d="M124.14,11.94a2.91,2.91,0,0,1,2.42-1.54c1.67,0,2.48,1.11,2.48,2.8v4.44h-0.84V13a1.74,1.74,0,0,0-1.85-1.88,2.1,2.1,0,0,0-2,2.38v4.09H123.5V13a1.74,1.74,0,0,0-1.85-1.88,2.11,2.11,0,0,0-2,2.38v4.09h-0.84V12.1c0-.31,0-0.7-0.07-1.49h0.87l0,1,0,0a2.43,2.43,0,0,1,2.2-1.28A2.32,2.32,0,0,1,124.14,11.94Z"/><path class="cls-3" d="M132.23,7.53V8.58h-1V7.53h1Zm-0.91,3.08h0.84v7h-0.84v-7Z"/><path class="cls-3" d="M135.92,10.61h1.6v0.77h-1.6v4.78a0.86,0.86,0,0,0,1,.92,2.75,2.75,0,0,0,.71-0.08v0.73a3.38,3.38,0,0,1-.85.13,1.42,1.42,0,0,1-1.68-1.65V11.38h-1.4V10.61h1.4V9.11l0.84-.36v1.86Z"/><path class="cls-3" d="M142.1,10.61l2.37,5.88,2.35-5.88h0.91l-3.88,9.72h-0.92L144,17.64l-2.91-7h1Z"/><path class="cls-3" d="M154.92,14.13c0,2.06-1.2,3.73-3.28,3.73s-3.28-1.65-3.28-3.73,1.21-3.73,3.28-3.73S154.92,12.07,154.92,14.13Zm-3.28,3c1.48,0,2.37-1.36,2.37-3s-0.81-3-2.38-3-2.35,1.39-2.35,3S150.13,17.08,151.64,17.08Z"/><path class="cls-3" d="M156.71,10.61h0.84v4.58a1.73,1.73,0,0,0,1.85,1.89,2.1,2.1,0,0,0,2-2.37v-4.1h0.84v5.55c0,0.11,0,.27,0,0.43l0.06,1.05h-0.87l0-1,0,0a2.42,2.42,0,0,1-2.2,1.27c-1.65,0-2.48-1.11-2.48-2.8V10.61Z"/><path class="cls-3" d="M167.84,10.42v0.81a5,5,0,0,0-.53-0.06c-1.26,0-1.92,1-1.92,2.27v4.2h-0.84v-5.7c0-.55,0-0.63-0.07-1.33h0.87l0,1h0a1.84,1.84,0,0,1,1.22-1.19,2.15,2.15,0,0,1,.63-0.07Z"/><path class="cls-3" d="M174.14,7.53V8.58h-1V7.53h1Zm-0.91,3.08h0.84v7h-0.84v-7Z"/><path class="cls-3" d="M181.22,7.53h0.84v8.63c0,0.21,0,.46.06,1.19,0,0.1,0,.17,0,0.29h-0.87l0-1,0-.06a2.86,2.86,0,0,1-2.41,1.3c-1.86,0-2.88-1.65-2.88-3.75s1.06-3.7,2.88-3.7a2.81,2.81,0,0,1,2.41,1.28l0,0V7.53Zm-2.42,9.55c1.55,0,2.4-1.13,2.4-3.12,0-1.64-.79-2.79-2.28-2.79-1.33,0-2.1,1.12-2.1,2.84S177.47,17.08,178.8,17.08Z"/><path class="cls-3" d="M190.14,14.32h-5.43c0,1.78.94,2.76,2.44,2.76a2.11,2.11,0,0,0,2-1.68h0.88a3,3,0,0,1-3.17,2.45c-2,0-3.1-1.61-3.1-3.73s1.22-3.73,3.14-3.73S190.13,11.73,190.14,14.32Zm-0.91-.77a2.25,2.25,0,0,0-2.3-2.38c-1.18,0-2,.88-2.2,2.38h4.5Z"/><path class="cls-3" d="M196.87,12.66v3.82c0,0.24,0,.62.07,1.16h-0.87l0-1h0a2.58,2.58,0,0,1-2.24,1.25,2.15,2.15,0,0,1-2.34-2.17,2.35,2.35,0,0,1,2.2-2.25,13.38,13.38,0,0,1,1.64-.08H196V12.87a1.45,1.45,0,0,0-1.67-1.7q-1.6,0-1.72,1.22h-0.9c0.2-1.32,1.13-2,2.63-2C196.06,10.4,196.87,11.24,196.87,12.66Zm-2.94,4.43c1.19,0,2.06-.66,2.12-2.41,0-.18,0-0.36,0-0.57h-0.84c-2,0-2.84.52-2.84,1.57A1.4,1.4,0,0,0,193.93,17.08Z"/><path class="cls-3" d="M49.44,36.73c1.75,0,3.21.69,3.21,2.63a2.28,2.28,0,0,1-1.95,2.19v0a1.83,1.83,0,0,1,1.16.6,2.82,2.82,0,0,1,.52,1.51c0.08,0.7.11,1.2,0.14,1.53a3.41,3.41,0,0,0,.41,1.63H51.88A7.31,7.31,0,0,1,51.54,45c0-.27-0.06-0.69-0.13-1.29a1.57,1.57,0,0,0-2-1.67h-2.6v4.82H45.92V36.73h3.52ZM49,41.18c1.54,0,2.7-.34,2.7-1.81,0-1.23-.73-1.81-2.2-1.81H46.83v3.61H49Z"/><path class="cls-3" d="M60.64,43.52H55.21c0,1.78.94,2.76,2.44,2.76a2.12,2.12,0,0,0,2-1.68h0.88a3,3,0,0,1-3.17,2.45c-2,0-3.1-1.61-3.1-3.73s1.22-3.73,3.14-3.73S60.63,40.93,60.64,43.52Zm-0.91-.77a2.25,2.25,0,0,0-2.3-2.38c-1.18,0-2,.88-2.2,2.38h4.5Z"/><path class="cls-3" d="M62.28,39.81l2.42,5.87L67,39.81H68l-2.79,7h-1l-2.87-7h0.92Z"/><path class="cls-3" d="M70.26,36.73v1.05h-1V36.73h1Zm-0.91,3.08h0.84v7H69.35v-7Z"/><path class="cls-3" d="M78.42,43.52H73c0,1.78.94,2.76,2.44,2.76a2.12,2.12,0,0,0,2-1.68h0.88a3,3,0,0,1-3.17,2.45c-2,0-3.1-1.61-3.1-3.73s1.22-3.73,3.14-3.73S78.41,40.93,78.42,43.52Zm-0.91-.77a2.25,2.25,0,0,0-2.3-2.38c-1.18,0-2,.88-2.2,2.38h4.5Z"/><path class="cls-3" d="M80.08,39.81l2.1,5.93h0l2.13-5.93h1l2.07,5.87h0l2-5.87h0.92l-2.62,7H87l-2.16-6.07h0l-2.2,6.07H81.74l-2.58-7h0.92Z"/><path class="cls-3" d="M98.82,36.72v0.67a2.5,2.5,0,0,0-.52-0.06,1,1,0,0,0-1.05.49,2.54,2.54,0,0,0-.08,1v1h1.6v0.77h-1.6v6.26H96.32V40.58H94.91V39.81h1.42V38.3A1.48,1.48,0,0,1,98,36.56,3.1,3.1,0,0,1,98.82,36.72Z"/><path class="cls-3" d="M106.21,43.33c0,2.06-1.2,3.73-3.28,3.73s-3.28-1.65-3.28-3.73,1.2-3.73,3.28-3.73S106.21,41.27,106.21,43.33Zm-3.28,3c1.48,0,2.37-1.36,2.37-3s-0.81-3-2.38-3-2.35,1.39-2.35,3S101.42,46.28,102.93,46.28Z"/><path class="cls-3" d="M111.29,39.62v0.81a5,5,0,0,0-.53-0.06c-1.26,0-1.92,1-1.92,2.27v4.2H108v-5.7c0-.55,0-0.63-0.07-1.33h0.87l0,1h0a1.85,1.85,0,0,1,1.22-1.19,2.15,2.15,0,0,1,.63-0.07Z"/><path class="cls-3" d="M119.76,36.72v0.67a2.49,2.49,0,0,0-.52-0.06,1,1,0,0,0-1.05.49,2.54,2.54,0,0,0-.08,1v1h1.6v0.77h-1.6v6.26h-0.84V40.58h-1.42V39.81h1.42V38.3a1.48,1.48,0,0,1,1.68-1.74A3.1,3.1,0,0,1,119.76,36.72Z"/><path class="cls-3" d="M126.75,43.52h-5.44c0,1.78.94,2.76,2.44,2.76a2.12,2.12,0,0,0,2-1.68h0.88a3,3,0,0,1-3.17,2.45c-2,0-3.1-1.61-3.1-3.73s1.22-3.73,3.14-3.73S126.74,40.93,126.75,43.52Zm-0.91-.77a2.25,2.25,0,0,0-2.3-2.38c-1.18,0-2,.88-2.2,2.38h4.5Z"/><path class="cls-3" d="M133.48,41.86v3.82c0,0.24,0,.62.07,1.16h-0.87l0-1h0a2.58,2.58,0,0,1-2.24,1.25A2.15,2.15,0,0,1,128,44.88a2.35,2.35,0,0,1,2.2-2.25,13.38,13.38,0,0,1,1.64-.08h0.76V42.07a1.45,1.45,0,0,0-1.67-1.7q-1.6,0-1.72,1.22h-0.9c0.2-1.32,1.13-2,2.63-2C132.67,39.6,133.48,40.44,133.48,41.86Zm-2.94,4.43c1.19,0,2.06-.66,2.12-2.41,0-.18,0-0.36,0-0.57H131.8c-2,0-2.84.52-2.84,1.57A1.4,1.4,0,0,0,130.54,46.28Z"/><path class="cls-3" d="M140.62,41.55h-0.91c-0.07-.74-0.66-1.18-1.72-1.18s-1.6.41-1.6,1.13a0.71,0.71,0,0,0,.27.62,3.63,3.63,0,0,0,1.34.52,6.24,6.24,0,0,1,2.23.8,1.65,1.65,0,0,1,.62,1.32c0,1.44-1.26,2.3-3,2.3s-2.65-.87-2.65-2.13h0.91c0.06,0.87.74,1.36,1.95,1.36a1.58,1.58,0,0,0,1.83-1.4c0-.69-0.55-1.06-1.55-1.27-1.72-.36-2.9-0.69-2.9-2s1.05-2,2.58-2S140.54,40.32,140.62,41.55Z"/><path class="cls-3" d="M143.7,36.73v1.05h-1V36.73h1Zm-0.91,3.08h0.84v7h-0.84v-7Z"/><path class="cls-3" d="M145.8,36.73h0.84v4.12l0,0a2.8,2.8,0,0,1,2.42-1.28c1.79,0,2.87,1.51,2.87,3.7s-1,3.75-2.84,3.75a2.86,2.86,0,0,1-2.45-1.3l0,0.06,0,1h-0.87c0-.73.07-1.23,0.07-1.48V36.73ZM149,46.28c1.33,0,2-1.25,2-3.05s-0.8-2.86-2.16-2.86-2.26,1.08-2.26,2.82C146.64,45.16,147.48,46.28,149,46.28Z"/><path class="cls-3" d="M154.71,36.73v1.05h-1V36.73h1Zm-0.91,3.08h0.84v7h-0.84v-7Z"/><path class="cls-3" d="M157,36.73h0.84V46.84H157V36.73Z"/><path class="cls-3" d="M161,36.73v1.05h-1V36.73h1Zm-0.91,3.08H161v7h-0.84v-7Z"/><path class="cls-3" d="M164.73,39.81h1.6v0.77h-1.6v4.78a0.86,0.86,0,0,0,1,.92,2.75,2.75,0,0,0,.71-0.08v0.73a3.38,3.38,0,0,1-.85.13,1.42,1.42,0,0,1-1.68-1.65V40.58h-1.4V39.81h1.4v-1.5l0.84-.36v1.86Z"/><path class="cls-3" d="M168,39.81l2.37,5.88,2.35-5.88h0.91l-3.88,9.72h-0.92l1.06-2.69-2.91-7h1Z"/><path class="cls-3" d="M183.83,41.86v3.82c0,0.24,0,.62.07,1.16H183l0-1h0a2.58,2.58,0,0,1-2.24,1.25,2.15,2.15,0,0,1-2.34-2.17,2.35,2.35,0,0,1,2.2-2.25,13.38,13.38,0,0,1,1.64-.08H183V42.07a1.45,1.45,0,0,0-1.67-1.7q-1.6,0-1.72,1.22h-0.9c0.2-1.32,1.13-2,2.63-2C183,39.6,183.83,40.44,183.83,41.86Zm-2.94,4.43c1.19,0,2.06-.66,2.12-2.41,0-.18,0-0.36,0-0.57h-0.84c-2,0-2.84.52-2.84,1.57A1.4,1.4,0,0,0,180.89,46.28Z"/><path class="cls-3" d="M191.61,42.4v4.44h-0.84V42.25a1.74,1.74,0,0,0-1.85-1.88,2.11,2.11,0,0,0-2,2.4v4.08h-0.84V41.3c0-.31,0-0.57-0.07-1.49h0.87l0,1,0,0a2.42,2.42,0,0,1,2.2-1.28C190.8,39.6,191.61,40.71,191.61,42.4Z"/><path class="cls-3" d="M198.75,36.73h0.84v8.63c0,0.21,0,.46.06,1.19,0,0.1,0,.17,0,0.29h-0.87l0-1,0-.06a2.86,2.86,0,0,1-2.41,1.3c-1.86,0-2.88-1.65-2.88-3.75s1.06-3.7,2.88-3.7a2.81,2.81,0,0,1,2.41,1.28l0,0V36.73Zm-2.42,9.55c1.55,0,2.4-1.13,2.4-3.12,0-1.64-.79-2.79-2.28-2.79-1.33,0-2.1,1.12-2.1,2.84S195,46.28,196.33,46.28Z"/><path class="cls-3" d="M206.62,36.73v1.05h-1V36.73h1Zm-0.91,3.08h0.84v7h-0.84v-7Z"/><path class="cls-3" d="M214.19,41.14a2.92,2.92,0,0,1,2.42-1.54c1.67,0,2.48,1.11,2.48,2.8v4.44h-0.84V42.25a1.74,1.74,0,0,0-1.85-1.88,2.1,2.1,0,0,0-2,2.38v4.09h-0.84V42.25a1.74,1.74,0,0,0-1.85-1.88,2.11,2.11,0,0,0-2,2.38v4.09h-0.84V41.3c0-.31,0-0.7-0.07-1.49h0.87l0,1,0,0a2.43,2.43,0,0,1,2.2-1.28A2.32,2.32,0,0,1,214.19,41.14Z"/><path class="cls-3" d="M227.38,43.3c0,2-1,3.75-2.84,3.75a2.86,2.86,0,0,1-2.45-1.3h0v3.78h-0.84V41.14c0-.55,0-0.63-0.07-1.33H222l0,1,0,0a2.8,2.8,0,0,1,2.42-1.28C226.33,39.6,227.38,41.11,227.38,43.3Zm-2.94,3c1.4,0,2-1.34,2-3.08s-0.74-2.83-2.16-2.83-2.26,1.09-2.26,2.79C222.06,45.15,222.9,46.28,224.44,46.28Z"/><path class="cls-3" d="M234,41.86v3.82c0,0.24,0,.62.07,1.16h-0.87l0-1h0a2.58,2.58,0,0,1-2.24,1.25,2.15,2.15,0,0,1-2.34-2.17,2.35,2.35,0,0,1,2.2-2.25,13.38,13.38,0,0,1,1.64-.08h0.76V42.07a1.45,1.45,0,0,0-1.67-1.7q-1.6,0-1.72,1.22h-0.9c0.2-1.32,1.13-2,2.63-2C233.21,39.6,234,40.44,234,41.86Zm-2.94,4.43c1.19,0,2.06-.66,2.12-2.41,0-.18,0-0.36,0-0.57h-0.84c-2,0-2.84.52-2.84,1.57A1.4,1.4,0,0,0,231.08,46.28Z"/><path class="cls-3" d="M241.61,42H240.7a1.64,1.64,0,0,0-1.92-1.6c-1.23,0-2.09,1.26-2.09,2.94s0.85,3,2.09,3a1.78,1.78,0,0,0,1.92-1.64h0.91a2.49,2.49,0,0,1-2.75,2.41c-1.92,0-3.08-1.57-3.08-3.73s1.21-3.73,3.14-3.73A2.49,2.49,0,0,1,241.61,42Z"/><path class="cls-3" d="M244.75,39.81h1.6v0.77h-1.6v4.78a0.86,0.86,0,0,0,1,.92,2.75,2.75,0,0,0,.71-0.08v0.73a3.38,3.38,0,0,1-.85.13,1.42,1.42,0,0,1-1.68-1.65V40.58h-1.4V39.81h1.4v-1.5l0.84-.36v1.86Z"/><path class="cls-3" d="M54.38,67.83A2.12,2.12,0,0,0,52,66.09c-2.47,0-3.38,2.14-3.38,4.43s0.9,4.43,3.38,4.43a2.37,2.37,0,0,0,2.49-1.82h1A3.37,3.37,0,0,1,52,75.79c-3,0-4.36-2.42-4.36-5.27S49,65.25,52,65.25c1.72,0,3.22.81,3.36,2.58h-1Z"/><path class="cls-3" d="M63.35,72.06c0,2.06-1.2,3.73-3.28,3.73s-3.28-1.65-3.28-3.73,1.2-3.73,3.28-3.73S63.35,70,63.35,72.06Zm-3.28,3c1.48,0,2.37-1.36,2.37-3s-0.81-3-2.38-3-2.35,1.39-2.35,3S58.56,75,60.07,75Z"/><path class="cls-3" d="M70.68,71.13v4.44H69.84V71A1.74,1.74,0,0,0,68,69.1a2.11,2.11,0,0,0-2,2.4v4.08H65.14V70c0-.31,0-0.57-0.07-1.49h0.87l0,1,0,0a2.42,2.42,0,0,1,2.2-1.28C69.87,68.33,70.68,69.44,70.68,71.13Z"/><path class="cls-3" d="M78.33,70.7H77.42a1.64,1.64,0,0,0-1.92-1.6c-1.23,0-2.09,1.26-2.09,2.94s0.85,3,2.09,3a1.78,1.78,0,0,0,1.92-1.64h0.91a2.49,2.49,0,0,1-2.75,2.41c-1.92,0-3.08-1.57-3.08-3.73s1.2-3.73,3.14-3.73A2.49,2.49,0,0,1,78.33,70.7Z"/><path class="cls-3" d="M86,72.26H80.52C80.57,74,81.46,75,83,75a2.12,2.12,0,0,0,2-1.68h0.88a3,3,0,0,1-3.17,2.45c-2,0-3.1-1.61-3.1-3.73s1.22-3.73,3.14-3.73S85.95,69.66,86,72.26ZM85,71.49a2.25,2.25,0,0,0-2.3-2.38c-1.18,0-2,.88-2.2,2.38H85Z"/><path class="cls-3" d="M93.9,72c0,2-1,3.75-2.84,3.75a2.86,2.86,0,0,1-2.45-1.3h0v3.78H87.73V69.87c0-.55,0-0.63-0.07-1.33h0.87l0,1,0,0A2.79,2.79,0,0,1,91,68.33C92.85,68.33,93.9,69.85,93.9,72ZM91,75c1.4,0,2-1.34,2-3.08s-0.74-2.83-2.16-2.83-2.26,1.09-2.26,2.79C88.57,73.88,89.42,75,91,75Z"/><path class="cls-3" d="M97.16,68.54h1.6v0.77h-1.6v4.78a0.86,0.86,0,0,0,1,.92,2.75,2.75,0,0,0,.71-0.08v0.73a3.39,3.39,0,0,1-.85.13,1.42,1.42,0,0,1-1.68-1.65V69.31h-1.4V68.54h1.4V67l0.84-.36v1.86Z"/><path class="cls-3" d="M109.23,65.46h0.84v8.63c0,0.21,0,.46.06,1.19,0,0.1,0,.17,0,0.29h-0.87l0-1,0-.06a2.86,2.86,0,0,1-2.41,1.3c-1.86,0-2.89-1.65-2.89-3.75s1.06-3.7,2.89-3.7a2.81,2.81,0,0,1,2.41,1.28l0,0V65.46ZM106.8,75c1.55,0,2.4-1.13,2.4-3.12,0-1.64-.78-2.79-2.28-2.79-1.33,0-2.1,1.12-2.1,2.84S105.47,75,106.8,75Z"/><path class="cls-3" d="M118.15,72.26h-5.44c0,1.78.94,2.76,2.44,2.76a2.12,2.12,0,0,0,2-1.68h0.88a3,3,0,0,1-3.17,2.45c-2,0-3.1-1.61-3.1-3.73s1.22-3.73,3.14-3.73S118.13,69.66,118.15,72.26Zm-0.91-.77a2.25,2.25,0,0,0-2.3-2.38c-1.18,0-2,.88-2.2,2.38h4.5Z"/><path class="cls-3" d="M119.78,68.54l2.42,5.87,2.34-5.87h0.92l-2.79,7h-1l-2.87-7h0.92Z"/><path class="cls-3" d="M132.48,72.26H127c0,1.78.94,2.76,2.44,2.76a2.11,2.11,0,0,0,2-1.68h0.88a3,3,0,0,1-3.17,2.45c-2,0-3.1-1.61-3.1-3.73s1.22-3.73,3.14-3.73S132.47,69.66,132.48,72.26Zm-0.91-.77a2.25,2.25,0,0,0-2.3-2.38c-1.18,0-2,.88-2.2,2.38h4.5Z"/><path class="cls-3" d="M134.41,65.46h0.84V75.58h-0.84V65.46Z"/><path class="cls-3" d="M143.61,72.06c0,2.06-1.2,3.73-3.28,3.73s-3.28-1.65-3.28-3.73,1.21-3.73,3.28-3.73S143.61,70,143.61,72.06Zm-3.28,3c1.48,0,2.37-1.36,2.37-3s-0.81-3-2.38-3-2.35,1.39-2.35,3S138.82,75,140.33,75Z"/><path class="cls-3" d="M151.42,72c0,2-1,3.75-2.84,3.75a2.86,2.86,0,0,1-2.45-1.3h0v3.78h-0.84V69.87c0-.55,0-0.63-0.07-1.33h0.87l0,1,0,0a2.8,2.8,0,0,1,2.42-1.28C150.37,68.33,151.42,69.85,151.42,72Zm-2.94,3c1.4,0,2-1.34,2-3.08s-0.74-2.83-2.16-2.83-2.26,1.09-2.26,2.79C146.1,73.88,146.94,75,148.48,75Z"/><path class="cls-3" d="M158.58,69.87A2.92,2.92,0,0,1,161,68.33c1.67,0,2.48,1.11,2.48,2.8v4.44h-0.84V71a1.74,1.74,0,0,0-1.85-1.88,2.1,2.1,0,0,0-2,2.38v4.09h-0.84V71a1.74,1.74,0,0,0-1.85-1.88,2.11,2.11,0,0,0-2,2.38v4.09h-0.84V70c0-.31,0-0.7-0.07-1.49H154l0,1,0,0a2.43,2.43,0,0,1,2.2-1.28A2.32,2.32,0,0,1,158.58,69.87Z"/><path class="cls-3" d="M171.67,72.26h-5.44c0,1.78.94,2.76,2.44,2.76a2.12,2.12,0,0,0,2-1.68h0.88a3,3,0,0,1-3.17,2.45c-2,0-3.1-1.61-3.1-3.73s1.22-3.73,3.14-3.73S171.65,69.66,171.67,72.26Zm-0.91-.77a2.25,2.25,0,0,0-2.3-2.38c-1.18,0-2,.88-2.2,2.38h4.5Z"/><path class="cls-3" d="M179.13,71.13v4.44h-0.84V71a1.74,1.74,0,0,0-1.85-1.88,2.11,2.11,0,0,0-2,2.4v4.08h-0.84V70c0-.31,0-0.57-0.07-1.49h0.87l0,1,0,0a2.42,2.42,0,0,1,2.2-1.28C178.32,68.33,179.13,69.44,179.13,71.13Z"/><path class="cls-3" d="M182.87,68.54h1.6v0.77h-1.6v4.78a0.86,0.86,0,0,0,1,.92,2.76,2.76,0,0,0,.71-0.08v0.73a3.39,3.39,0,0,1-.85.13A1.42,1.42,0,0,1,182,74.13V69.31h-1.4V68.54H182V67l0.84-.36v1.86Z"/><path class="cls-3" d="M194.91,70.59v3.82c0,0.24,0,.62.07,1.16h-0.87l0-1h0a2.58,2.58,0,0,1-2.24,1.25,2.15,2.15,0,0,1-2.34-2.17,2.35,2.35,0,0,1,2.2-2.25,13.4,13.4,0,0,1,1.64-.08h0.76V70.8a1.45,1.45,0,0,0-1.67-1.7q-1.6,0-1.72,1.22h-0.9c0.2-1.32,1.13-2,2.63-2C194.1,68.33,194.91,69.17,194.91,70.59ZM192,75c1.19,0,2.06-.66,2.12-2.41,0-.18,0-0.36,0-0.57h-0.84c-2,0-2.84.52-2.84,1.57A1.4,1.4,0,0,0,192,75Z"/><path class="cls-3" d="M202.69,71.13v4.44h-0.84V71A1.74,1.74,0,0,0,200,69.1a2.11,2.11,0,0,0-2,2.4v4.08h-0.84V70c0-.31,0-0.57-0.07-1.49h0.87l0,1,0,0a2.42,2.42,0,0,1,2.2-1.28C201.88,68.33,202.69,69.44,202.69,71.13Z"/><path class="cls-3" d="M209.83,65.46h0.84v8.63c0,0.21,0,.46.06,1.19,0,0.1,0,.17,0,0.29h-0.87l0-1,0-.06a2.86,2.86,0,0,1-2.41,1.3c-1.86,0-2.89-1.65-2.89-3.75s1.06-3.7,2.89-3.7a2.81,2.81,0,0,1,2.41,1.28l0,0V65.46ZM207.41,75c1.55,0,2.4-1.13,2.4-3.12,0-1.64-.78-2.79-2.28-2.79-1.33,0-2.1,1.12-2.1,2.84S206.08,75,207.41,75Z"/><path class="cls-3" d="M219.86,65.46c2.54,0,3.87,1,3.87,2.86s-1.37,2.86-3.89,2.86H218v4.4h-0.91V65.46h2.8Zm0.39,4.87c1.6,0,2.49-.67,2.49-2s-0.85-2-2.58-2H218v4h2.28Z"/><path class="cls-3" d="M234.22,70.52c0,3-1.47,5.27-4.51,5.27s-4.51-2.31-4.51-5.27,1.44-5.27,4.51-5.27S234.22,67.56,234.22,70.52Zm-4.51,4.43c2.45,0,3.53-2.13,3.53-4.43s-1.06-4.43-3.54-4.43-3.52,2.13-3.52,4.43S227.26,74.95,229.71,74.95Z"/><path class="cls-3" d="M242.8,67.83a2.12,2.12,0,0,0-2.38-1.74c-2.47,0-3.38,2.14-3.38,4.43s0.9,4.43,3.38,4.43a2.37,2.37,0,0,0,2.49-1.82h1a3.37,3.37,0,0,1-3.47,2.66c-3,0-4.36-2.42-4.36-5.27s1.36-5.27,4.36-5.27c1.72,0,3.22.81,3.36,2.58h-1Z"/><path class="cls-3" d="M60.58,94.52c1.77,0,3,.92,3,2.54a2.37,2.37,0,0,1-1.88,2.28v0a2.5,2.5,0,0,1,2.3,2.56,2.66,2.66,0,0,1-3,2.7H57.14V94.52h3.43ZM60.23,99c1.26,0,2.38-.48,2.38-1.83s-0.83-1.78-2.44-1.78H58.05V99h2.17Zm0.27,4.82c1.75,0,2.54-.62,2.54-2,0-1.78-1.54-2-3.14-2H58.05v4h2.44Z"/><path class="cls-3" d="M66.26,97.6H67.1v4.58a1.73,1.73,0,0,0,1.85,1.89,2.1,2.1,0,0,0,2-2.37V97.6H71.8v5.55c0,0.11,0,.27,0,0.43l0.06,1.05H71l0-1,0,0a2.42,2.42,0,0,1-2.2,1.27c-1.65,0-2.48-1.11-2.48-2.8V97.6Z"/><path class="cls-3" d="M79,99.34H78.09c-0.07-.74-0.66-1.18-1.72-1.18s-1.6.41-1.6,1.13a0.71,0.71,0,0,0,.27.62,3.62,3.62,0,0,0,1.34.52,6.23,6.23,0,0,1,2.23.8,1.65,1.65,0,0,1,.62,1.32c0,1.44-1.26,2.3-3,2.3s-2.65-.87-2.65-2.13h0.91c0.06,0.87.74,1.36,1.95,1.36a1.58,1.58,0,0,0,1.83-1.4c0-.69-0.55-1.06-1.55-1.27-1.72-.36-2.9-0.69-2.9-2s1.05-2,2.58-2S78.92,98.1,79,99.34Z"/><path class="cls-3" d="M82.08,94.52v1.05h-1V94.52h1ZM81.17,97.6H82v7H81.17v-7Z"/><path class="cls-3" d="M89.86,100.19v4.44H89V100a1.74,1.74,0,0,0-1.85-1.88,2.11,2.11,0,0,0-2,2.4v4.08H84.32V99.08c0-.31,0-0.57-0.07-1.49h0.87l0,1,0,0a2.42,2.42,0,0,1,2.2-1.28C89.05,97.39,89.86,98.5,89.86,100.19Z"/><path class="cls-3" d="M98.08,101.31H92.65c0,1.78.94,2.76,2.44,2.76a2.12,2.12,0,0,0,2-1.68H98a3,3,0,0,1-3.17,2.45c-2,0-3.1-1.61-3.1-3.73s1.22-3.73,3.14-3.73S98.07,98.72,98.08,101.31Zm-0.91-.77a2.25,2.25,0,0,0-2.3-2.38c-1.18,0-2,.88-2.2,2.38h4.5Z"/><path class="cls-3" d="M104.9,99.34H104c-0.07-.74-0.66-1.18-1.72-1.18s-1.6.41-1.6,1.13a0.71,0.71,0,0,0,.27.62,3.62,3.62,0,0,0,1.34.52,6.23,6.23,0,0,1,2.23.8,1.65,1.65,0,0,1,.62,1.32c0,1.44-1.26,2.3-3,2.3s-2.65-.87-2.65-2.13h0.91c0.06,0.87.74,1.36,1.95,1.36a1.58,1.58,0,0,0,1.83-1.4c0-.69-0.55-1.06-1.55-1.27-1.72-.36-2.9-0.69-2.9-2s1.05-2,2.58-2S104.82,98.1,104.9,99.34Z"/><path class="cls-3" d="M112,99.34H111c-0.07-.74-0.66-1.18-1.72-1.18s-1.6.41-1.6,1.13a0.71,0.71,0,0,0,.27.62,3.62,3.62,0,0,0,1.34.52,6.23,6.23,0,0,1,2.23.8,1.65,1.65,0,0,1,.62,1.32c0,1.44-1.26,2.3-3,2.3s-2.65-.87-2.65-2.13h0.91c0.06,0.87.74,1.36,1.95,1.36a1.58,1.58,0,0,0,1.83-1.4c0-.69-0.55-1.06-1.55-1.27-1.72-.36-2.9-0.69-2.9-2s1.05-2,2.58-2S111.87,98.1,112,99.34Z"/><path class="cls-3" d="M123.41,99.76H122.5a1.64,1.64,0,0,0-1.92-1.6c-1.23,0-2.09,1.26-2.09,2.94s0.85,3,2.09,3a1.78,1.78,0,0,0,1.92-1.64h0.91a2.49,2.49,0,0,1-2.75,2.41c-1.92,0-3.08-1.57-3.08-3.73s1.2-3.73,3.14-3.73A2.49,2.49,0,0,1,123.41,99.76Z"/><path class="cls-3" d="M129.93,99.64v3.82c0,0.24,0,.62.07,1.16h-0.87l0-1h0a2.58,2.58,0,0,1-2.24,1.25,2.15,2.15,0,0,1-2.34-2.17,2.35,2.35,0,0,1,2.2-2.25,13.38,13.38,0,0,1,1.64-.08h0.76V99.85a1.45,1.45,0,0,0-1.67-1.7q-1.6,0-1.72,1.22h-0.9c0.2-1.32,1.13-2,2.63-2C129.12,97.39,129.93,98.23,129.93,99.64ZM127,104.07c1.19,0,2.06-.66,2.12-2.41,0-.18,0-0.36,0-0.57h-0.84c-2,0-2.84.52-2.84,1.57A1.4,1.4,0,0,0,127,104.07Z"/><path class="cls-3" d="M137.07,99.34h-0.91c-0.07-.74-0.66-1.18-1.72-1.18s-1.6.41-1.6,1.13a0.71,0.71,0,0,0,.27.62,3.63,3.63,0,0,0,1.34.52,6.24,6.24,0,0,1,2.23.8,1.65,1.65,0,0,1,.62,1.32c0,1.44-1.26,2.3-3,2.3s-2.65-.87-2.65-2.13h0.91c0.06,0.87.74,1.36,1.95,1.36a1.58,1.58,0,0,0,1.83-1.4c0-.69-0.55-1.06-1.55-1.27-1.72-.36-2.9-0.69-2.9-2s1.05-2,2.58-2S137,98.1,137.07,99.34Z"/><path class="cls-3" d="M145.15,101.31h-5.44c0,1.78.94,2.76,2.44,2.76a2.12,2.12,0,0,0,2-1.68h0.88a3,3,0,0,1-3.17,2.45c-2,0-3.1-1.61-3.1-3.73s1.22-3.73,3.14-3.73S145.14,98.72,145.15,101.31Zm-0.91-.77a2.25,2.25,0,0,0-2.3-2.38c-1.18,0-2,.88-2.2,2.38h4.5Z"/><path class="cls-3" d="M155.83,99.64v3.82c0,0.24,0,.62.07,1.16H155l0-1h0a2.58,2.58,0,0,1-2.24,1.25,2.15,2.15,0,0,1-2.34-2.17,2.35,2.35,0,0,1,2.2-2.25,13.38,13.38,0,0,1,1.64-.08H155V99.85a1.45,1.45,0,0,0-1.67-1.7q-1.6,0-1.72,1.22h-0.9c0.2-1.32,1.13-2,2.63-2C155,97.39,155.83,98.23,155.83,99.64Zm-2.94,4.43c1.19,0,2.06-.66,2.12-2.41,0-.18,0-0.36,0-0.57h-0.84c-2,0-2.84.52-2.84,1.57A1.4,1.4,0,0,0,152.89,104.07Z"/><path class="cls-3" d="M163.62,100.19v4.44h-0.84V100a1.74,1.74,0,0,0-1.85-1.88,2.11,2.11,0,0,0-2,2.4v4.08h-0.84V99.08c0-.31,0-0.57-0.07-1.49h0.87l0,1,0,0a2.42,2.42,0,0,1,2.2-1.28C162.8,97.39,163.62,98.5,163.62,100.19Z"/><path class="cls-3" d="M170.76,94.52h0.84v8.63c0,0.21,0,.46.06,1.19,0,0.1,0,.17,0,0.29H170.8l0-1,0-.06a2.86,2.86,0,0,1-2.41,1.3c-1.86,0-2.88-1.65-2.88-3.75s1.06-3.7,2.88-3.7a2.81,2.81,0,0,1,2.41,1.28l0,0V94.52Zm-2.42,9.55c1.55,0,2.4-1.13,2.4-3.12,0-1.64-.79-2.79-2.28-2.79-1.33,0-2.1,1.12-2.1,2.84S167,104.07,168.33,104.07Z"/><path class="cls-3" d="M182.52,99.64v3.82c0,0.24,0,.62.07,1.16h-0.87l0-1h0a2.58,2.58,0,0,1-2.24,1.25,2.15,2.15,0,0,1-2.34-2.17,2.35,2.35,0,0,1,2.2-2.25,13.4,13.4,0,0,1,1.64-.08h0.76V99.85a1.45,1.45,0,0,0-1.67-1.7q-1.6,0-1.72,1.22h-0.9c0.2-1.32,1.13-2,2.63-2C181.71,97.39,182.52,98.23,182.52,99.64Zm-2.94,4.43c1.19,0,2.06-.66,2.12-2.41,0-.18,0-0.36,0-0.57h-0.84c-2,0-2.84.52-2.84,1.57A1.4,1.4,0,0,0,179.58,104.07Z"/><path class="cls-3" d="M190.78,101.09c0,2-1,3.75-2.84,3.75a2.86,2.86,0,0,1-2.45-1.3h0v3.78h-0.84V98.93c0-.55,0-0.63-0.07-1.33h0.87l0,1,0,0a2.79,2.79,0,0,1,2.42-1.28C189.73,97.39,190.78,98.9,190.78,101.09Zm-2.94,3c1.4,0,2-1.34,2-3.08s-0.74-2.83-2.16-2.83-2.25,1.09-2.25,2.79C185.46,102.94,186.3,104.07,187.84,104.07Z"/><path class="cls-3" d="M198.62,101.09c0,2-1,3.75-2.84,3.75a2.86,2.86,0,0,1-2.45-1.3h0v3.78h-0.84V98.93c0-.55,0-0.63-0.07-1.33h0.87l0,1,0,0a2.8,2.8,0,0,1,2.42-1.28C197.57,97.39,198.62,98.9,198.62,101.09Zm-2.94,3c1.4,0,2-1.34,2-3.08s-0.74-2.83-2.16-2.83-2.26,1.09-2.26,2.79C193.29,102.94,194.14,104.07,195.68,104.07Z"/><path class="cls-3" d="M203.73,97.4v0.81a5,5,0,0,0-.53-0.06c-1.26,0-1.92,1-1.92,2.27v4.2h-0.84v-5.7c0-.55,0-0.63-0.07-1.33h0.87l0,1h0a1.84,1.84,0,0,1,1.22-1.19,2.15,2.15,0,0,1,.63-0.07Z"/><path class="cls-3" d="M211.2,101.12c0,2.06-1.2,3.73-3.28,3.73s-3.28-1.65-3.28-3.73,1.21-3.73,3.28-3.73S211.2,99.06,211.2,101.12Zm-3.28,3c1.48,0,2.37-1.36,2.37-3s-0.81-3-2.38-3-2.35,1.39-2.35,3S206.41,104.07,207.93,104.07Z"/><path class="cls-3" d="M212.71,97.6l2.42,5.87,2.34-5.87h0.92l-2.79,7h-1l-2.87-7h0.92Z"/><path class="cls-3" d="M224.31,99.64v3.82c0,0.24,0,.62.07,1.16h-0.87l0-1h0a2.58,2.58,0,0,1-2.24,1.25,2.15,2.15,0,0,1-2.34-2.17,2.35,2.35,0,0,1,2.2-2.25,13.38,13.38,0,0,1,1.64-.08h0.76V99.85a1.45,1.45,0,0,0-1.67-1.7q-1.6,0-1.72,1.22h-0.9c0.2-1.32,1.13-2,2.63-2C223.5,97.39,224.31,98.23,224.31,99.64Zm-2.94,4.43c1.19,0,2.06-.66,2.12-2.41,0-.18,0-0.36,0-0.57h-0.84c-2,0-2.84.52-2.84,1.57A1.4,1.4,0,0,0,221.37,104.07Z"/><path class="cls-3" d="M226.56,94.52h0.84v10.11h-0.84V94.52Z"/><path class="cls-3" d="M234.61,99.34H233.7c-0.07-.74-0.66-1.18-1.72-1.18s-1.6.41-1.6,1.13a0.71,0.71,0,0,0,.27.62,3.62,3.62,0,0,0,1.34.52,6.23,6.23,0,0,1,2.23.8,1.65,1.65,0,0,1,.62,1.32c0,1.44-1.26,2.3-3,2.3s-2.65-.87-2.65-2.13h0.91c0.06,0.87.74,1.36,1.95,1.36a1.58,1.58,0,0,0,1.83-1.4c0-.69-0.55-1.06-1.55-1.27-1.72-.36-2.9-0.69-2.9-2s1.05-2,2.58-2S234.53,98.1,234.61,99.34Z"/><path class="cls-3" d="M35.93,123.74v0.84H32.72v9.27h-0.9v-9.27H28.53v-0.84h7.4Z"/><path class="cls-3" d="M39,126.63v0.81a5,5,0,0,0-.53-0.06c-1.26,0-1.92,1-1.92,2.27v4.2H35.68v-5.7c0-.55,0-0.63-0.07-1.33h0.87l0,1h0a1.85,1.85,0,0,1,1.22-1.19,2.15,2.15,0,0,1,.63-0.07Z"/><path class="cls-3" d="M45.22,128.87v3.82c0,0.24,0,.62.07,1.16H44.42l0-1h0a2.58,2.58,0,0,1-2.24,1.25,2.15,2.15,0,0,1-2.34-2.17,2.35,2.35,0,0,1,2.2-2.25,13.4,13.4,0,0,1,1.64-.08h0.76v-0.46a1.45,1.45,0,0,0-1.67-1.7q-1.6,0-1.72,1.22h-0.9c0.2-1.32,1.13-2,2.63-2C44.41,126.61,45.22,127.45,45.22,128.87Zm-2.94,4.43c1.19,0,2.06-.66,2.12-2.41,0-.18,0-0.36,0-0.57H43.54c-2,0-2.84.52-2.84,1.57A1.4,1.4,0,0,0,42.28,133.29Z"/><path class="cls-3" d="M53,129.41v4.44H52.16v-4.59a1.74,1.74,0,0,0-1.85-1.88,2.11,2.11,0,0,0-2,2.4v4.08H47.46v-5.55c0-.31,0-0.57-0.07-1.49h0.87l0,1,0,0a2.42,2.42,0,0,1,2.2-1.28C52.19,126.61,53,127.72,53,129.41Z"/><path class="cls-3" d="M60.2,128.56H59.29c-0.07-.74-0.66-1.18-1.72-1.18s-1.6.41-1.6,1.13a0.71,0.71,0,0,0,.27.62,3.62,3.62,0,0,0,1.34.52,6.23,6.23,0,0,1,2.23.8,1.65,1.65,0,0,1,.62,1.32c0,1.44-1.26,2.3-3,2.3s-2.65-.87-2.65-2.13h0.91c0.06,0.87.74,1.36,1.95,1.36a1.58,1.58,0,0,0,1.83-1.4c0-.69-0.55-1.06-1.55-1.27-1.72-.36-2.9-0.69-2.9-2s1.05-2,2.58-2S60.12,127.33,60.2,128.56Z"/><path class="cls-3" d="M65.45,123.73v0.67a2.49,2.49,0,0,0-.52-0.06,1,1,0,0,0-1.05.49,2.54,2.54,0,0,0-.08,1v1h1.6v0.77H63.8v6.26H63v-6.26H61.54v-0.77H63v-1.51a1.48,1.48,0,0,1,1.68-1.74A3.1,3.1,0,0,1,65.45,123.73Z"/><path class="cls-3" d="M72.84,130.34c0,2.06-1.21,3.73-3.28,3.73s-3.28-1.65-3.28-3.73,1.2-3.73,3.28-3.73S72.84,128.28,72.84,130.34Zm-3.28,3c1.49,0,2.37-1.36,2.37-3s-0.81-3-2.38-3-2.35,1.39-2.35,3S68.05,133.29,69.57,133.29Z"/><path class="cls-3" d="M77.92,126.63v0.81a5,5,0,0,0-.53-0.06c-1.26,0-1.92,1-1.92,2.27v4.2H74.63v-5.7c0-.55,0-0.63-0.07-1.33h0.87l0,1h0a1.85,1.85,0,0,1,1.22-1.19,2.15,2.15,0,0,1,.63-0.07Z"/><path class="cls-3" d="M84.69,128.15a2.91,2.91,0,0,1,2.42-1.54c1.67,0,2.48,1.11,2.48,2.8v4.44H88.75v-4.59a1.74,1.74,0,0,0-1.85-1.88,2.1,2.1,0,0,0-2,2.38v4.09H84v-4.59a1.74,1.74,0,0,0-1.85-1.88,2.11,2.11,0,0,0-2,2.38v4.09H79.34v-5.55c0-.31,0-0.7-0.07-1.49h0.87l0,1,0,0a2.43,2.43,0,0,1,2.2-1.28A2.32,2.32,0,0,1,84.69,128.15Z"/><path class="cls-3" d="M96.67,128.87v3.82c0,0.24,0,.62.07,1.16H95.87l0-1h0a2.58,2.58,0,0,1-2.24,1.25,2.15,2.15,0,0,1-2.34-2.17,2.35,2.35,0,0,1,2.2-2.25,13.38,13.38,0,0,1,1.64-.08h0.76v-0.46a1.45,1.45,0,0,0-1.67-1.7q-1.6,0-1.72,1.22h-0.9c0.2-1.32,1.13-2,2.63-2C95.86,126.61,96.67,127.45,96.67,128.87Zm-2.94,4.43c1.19,0,2.06-.66,2.12-2.41,0-.18,0-0.36,0-0.57H95c-2,0-2.84.52-2.84,1.57A1.4,1.4,0,0,0,93.73,133.29Z"/><path class="cls-3" d="M100.35,126.82h1.6v0.77h-1.6v4.78a0.86,0.86,0,0,0,1,.92,2.75,2.75,0,0,0,.71-0.08v0.73a3.38,3.38,0,0,1-.85.13,1.42,1.42,0,0,1-1.68-1.65v-4.82h-1.4v-0.77h1.4v-1.5l0.84-.36v1.86Z"/><path class="cls-3" d="M104.56,123.74v1.05h-1v-1.05h1Zm-0.91,3.08h0.84v7h-0.84v-7Z"/><path class="cls-3" d="M112.86,130.34c0,2.06-1.2,3.73-3.28,3.73s-3.28-1.65-3.28-3.73,1.21-3.73,3.28-3.73S112.86,128.28,112.86,130.34Zm-3.28,3c1.48,0,2.37-1.36,2.37-3s-0.81-3-2.38-3-2.35,1.39-2.35,3S108.07,133.29,109.58,133.29Z"/><path class="cls-3" d="M120.19,129.41v4.44h-0.84v-4.59a1.74,1.74,0,0,0-1.85-1.88,2.11,2.11,0,0,0-2,2.4v4.08h-0.84v-5.55c0-.31,0-0.57-0.07-1.49h0.87l0,1,0,0a2.42,2.42,0,0,1,2.2-1.28C119.38,126.61,120.19,127.72,120.19,129.41Z"/><path class="cls-3" d="M123.87,126.82V128h-1.12v-1.21h1.12Zm0,5.83v1.21h-1.12v-1.21h1.12Z"/><path class="cls-3" d="M130.24,123.74h0.84v4.12l0,0a2.8,2.8,0,0,1,2.42-1.28c1.79,0,2.87,1.51,2.87,3.7s-1,3.75-2.84,3.75a2.86,2.86,0,0,1-2.45-1.3l0,0.06,0,1h-0.87c0-.73.07-1.23,0.07-1.48v-8.63Zm3.22,9.55c1.33,0,2-1.25,2-3.05s-0.8-2.86-2.16-2.86-2.26,1.08-2.26,2.82C131.08,132.17,131.92,133.29,133.46,133.29Z"/><path class="cls-3" d="M138.22,126.82h0.84v4.58a1.73,1.73,0,0,0,1.85,1.89,2.1,2.1,0,0,0,2-2.37v-4.1h0.84v5.55c0,0.11,0,.27,0,0.43l0.06,1.05H143l0-1,0,0a2.42,2.42,0,0,1-2.2,1.27c-1.65,0-2.48-1.11-2.48-2.8v-4.44Z"/><path class="cls-3" d="M151,128.56h-0.91c-0.07-.74-0.66-1.18-1.72-1.18s-1.6.41-1.6,1.13a0.71,0.71,0,0,0,.27.62,3.62,3.62,0,0,0,1.34.52,6.23,6.23,0,0,1,2.23.8,1.65,1.65,0,0,1,.62,1.32c0,1.44-1.26,2.3-3,2.3s-2.65-.87-2.65-2.13h0.91c0.06,0.87.74,1.36,1.95,1.36a1.58,1.58,0,0,0,1.83-1.4c0-.69-0.55-1.06-1.55-1.27-1.72-.36-2.9-0.69-2.9-2s1.05-2,2.58-2S150.88,127.33,151,128.56Z"/><path class="cls-3" d="M154,123.74v1.05h-1v-1.05h1Zm-0.91,3.08H154v7h-0.84v-7Z"/><path class="cls-3" d="M161.83,129.41v4.44H161v-4.59a1.74,1.74,0,0,0-1.85-1.88,2.11,2.11,0,0,0-2,2.4v4.08h-0.84v-5.55c0-.31,0-0.57-0.07-1.49h0.87l0,1,0,0a2.42,2.42,0,0,1,2.2-1.28C161,126.61,161.83,127.72,161.83,129.41Z"/><path class="cls-3" d="M170,130.53h-5.44c0,1.78.94,2.76,2.44,2.76a2.12,2.12,0,0,0,2-1.68H170a3,3,0,0,1-3.17,2.45c-2,0-3.1-1.61-3.1-3.73s1.22-3.73,3.14-3.73S170,127.94,170,130.53Zm-0.91-.77a2.25,2.25,0,0,0-2.3-2.38c-1.18,0-2,.88-2.2,2.38h4.5Z"/><path class="cls-3" d="M176.86,128.56H176c-0.07-.74-0.66-1.18-1.72-1.18s-1.6.41-1.6,1.13a0.71,0.71,0,0,0,.27.62,3.62,3.62,0,0,0,1.34.52,6.23,6.23,0,0,1,2.23.8,1.65,1.65,0,0,1,.62,1.32c0,1.44-1.26,2.3-3,2.3s-2.65-.87-2.65-2.13h0.91c0.06,0.87.74,1.36,1.95,1.36a1.58,1.58,0,0,0,1.83-1.4c0-.69-0.55-1.06-1.55-1.27-1.72-.36-2.9-0.69-2.9-2s1.05-2,2.58-2S176.78,127.33,176.86,128.56Z"/><path class="cls-3" d="M183.92,128.56H183c-0.07-.74-0.66-1.18-1.72-1.18s-1.6.41-1.6,1.13a0.71,0.71,0,0,0,.27.62,3.63,3.63,0,0,0,1.34.52,6.24,6.24,0,0,1,2.23.8,1.65,1.65,0,0,1,.62,1.32c0,1.44-1.26,2.3-3,2.3s-2.65-.87-2.65-2.13h0.91c0.06,0.87.74,1.36,1.95,1.36a1.58,1.58,0,0,0,1.83-1.4c0-.69-0.55-1.06-1.55-1.27-1.72-.36-2.9-0.69-2.9-2s1.05-2,2.58-2S183.84,127.33,183.92,128.56Z"/><path class="cls-3" d="M190,126.82l2.42,5.87,2.34-5.87h0.92l-2.79,7h-1l-2.87-7H190Z"/><path class="cls-3" d="M201.62,128.87v3.82c0,0.24,0,.62.07,1.16h-0.87l0-1h0a2.58,2.58,0,0,1-2.24,1.25,2.15,2.15,0,0,1-2.34-2.17,2.35,2.35,0,0,1,2.2-2.25,13.4,13.4,0,0,1,1.64-.08h0.76v-0.46a1.45,1.45,0,0,0-1.67-1.7q-1.6,0-1.72,1.22h-0.9c0.2-1.32,1.13-2,2.63-2C200.8,126.61,201.62,127.45,201.62,128.87Zm-2.94,4.43c1.19,0,2.06-.66,2.12-2.41,0-.18,0-0.36,0-0.57h-0.84c-2,0-2.84.52-2.84,1.57A1.4,1.4,0,0,0,198.67,133.29Z"/><path class="cls-3" d="M203.87,123.74h0.84v10.11h-0.84V123.74Z"/><path class="cls-3" d="M207,126.82h0.84v4.58a1.73,1.73,0,0,0,1.85,1.89,2.1,2.1,0,0,0,2-2.37v-4.1h0.84v5.55c0,0.11,0,.27,0,0.43l0.06,1.05h-0.87l0-1,0,0a2.42,2.42,0,0,1-2.2,1.27c-1.65,0-2.48-1.11-2.48-2.8v-4.44Z"/><path class="cls-3" d="M220.78,130.53h-5.43c0,1.78.94,2.76,2.44,2.76a2.11,2.11,0,0,0,2-1.68h0.88a3,3,0,0,1-3.17,2.45c-2,0-3.1-1.61-3.1-3.73s1.22-3.73,3.14-3.73S220.77,127.94,220.78,130.53Zm-0.91-.77a2.25,2.25,0,0,0-2.3-2.38c-1.18,0-2,.88-2.2,2.38h4.5Z"/><path class="cls-3" d="M231.46,128.87v3.82c0,0.24,0,.62.07,1.16h-0.87l0-1h0a2.58,2.58,0,0,1-2.24,1.25,2.15,2.15,0,0,1-2.34-2.17,2.35,2.35,0,0,1,2.2-2.25,13.38,13.38,0,0,1,1.64-.08h0.76v-0.46a1.45,1.45,0,0,0-1.67-1.7q-1.6,0-1.72,1.22h-0.9c0.2-1.32,1.13-2,2.63-2C230.65,126.61,231.46,127.45,231.46,128.87Zm-2.94,4.43c1.19,0,2.06-.66,2.12-2.41,0-.18,0-0.36,0-0.57h-0.84c-2,0-2.84.52-2.84,1.57A1.4,1.4,0,0,0,228.52,133.29Z"/><path class="cls-3" d="M238.55,123.74h0.84v8.63c0,0.21,0,.46.06,1.19,0,0.1,0,.17,0,0.29h-0.87l0-1,0-.06a2.86,2.86,0,0,1-2.41,1.3c-1.86,0-2.88-1.65-2.88-3.75s1.06-3.7,2.88-3.7a2.81,2.81,0,0,1,2.41,1.28l0,0v-4.12Zm-2.42,9.55c1.55,0,2.4-1.13,2.4-3.12,0-1.64-.79-2.79-2.28-2.79-1.33,0-2.1,1.12-2.1,2.84S234.79,133.29,236.13,133.29Z"/><path class="cls-3" d="M246.39,123.74h0.84v8.63c0,0.21,0,.46.06,1.19,0,0.1,0,.17,0,0.29h-0.87l0-1,0-.06a2.86,2.86,0,0,1-2.41,1.3c-1.86,0-2.88-1.65-2.88-3.75s1.06-3.7,2.88-3.7a2.81,2.81,0,0,1,2.41,1.28l0,0v-4.12ZM244,133.29c1.55,0,2.4-1.13,2.4-3.12,0-1.64-.79-2.79-2.28-2.79-1.33,0-2.1,1.12-2.1,2.84S242.63,133.29,244,133.29Z"/><path class="cls-3" d="M255.31,130.53h-5.43c0,1.78.94,2.76,2.44,2.76a2.11,2.11,0,0,0,2-1.68h0.88a3,3,0,0,1-3.17,2.45c-2,0-3.1-1.61-3.1-3.73s1.22-3.73,3.14-3.73S255.29,127.94,255.31,130.53Zm-0.91-.77a2.25,2.25,0,0,0-2.3-2.38c-1.18,0-2,.88-2.2,2.38h4.5Z"/><path class="cls-3" d="M262.07,123.74h0.84v8.63c0,0.21,0,.46.06,1.19,0,0.1,0,.17,0,0.29h-0.87l0-1,0-.06a2.86,2.86,0,0,1-2.41,1.3c-1.86,0-2.88-1.65-2.88-3.75s1.06-3.7,2.88-3.7a2.81,2.81,0,0,1,2.41,1.28l0,0v-4.12Zm-2.42,9.55c1.55,0,2.4-1.13,2.4-3.12,0-1.64-.79-2.79-2.28-2.79-1.33,0-2.1,1.12-2.1,2.84S258.32,133.29,259.65,133.29Z"/><path class="cls-3" d="M267.26,123.74l-0.18,7.72h-0.78l-0.18-7.72h1.15Zm0,8.91v1.21h-1.12v-1.21h1.12Z"/><text class="cls-2" transform="translate(8.41 47.6)">2</text><text class="cls-2" transform="translate(8.41 76.6)">3</text><text class="cls-2" transform="translate(8.41 106.6)">4</text><text class="cls-2" transform="translate(8.41 135.6)">5</text></svg>